<?xml version="1.0" encoding="utf-8"?>
<!-- Generator: Adobe Illustrator 23.1.1, SVG Export Plug-In . SVG Version: 6.00 Build 0)  -->
<svg version="1.1" id="Layer_1" xmlns="http://www.w3.org/2000/svg" xmlns:xlink="http://www.w3.org/1999/xlink" x="0px" y="0px"
	 viewBox="0 0 100 100" style="enable-background:new 0 0 100 100;" xml:space="preserve">
<g>
	<path d="M21.47,12.64C29,4.94,38.59,1.09,50.22,1.09c15.58,0,26.97,5.16,34.17,15.49c3.97,5.8,6.1,11.62,6.4,17.46H71.24
		c-1.25-4.49-2.84-7.87-4.79-10.16c-3.48-4.06-8.64-6.09-15.48-6.09c-6.97,0-12.46,2.87-16.48,8.6s-6.03,13.85-6.03,24.34
		s2.13,18.35,6.37,23.58s9.63,7.84,16.16,7.84c6.71,0,11.83-2.24,15.34-6.73c1.95-2.41,3.57-6.03,4.85-10.85H90.6
		c-1.67,10.2-5.96,18.49-12.84,24.88c-6.89,6.39-15.71,9.58-26.47,9.58c-13.31,0-23.78-4.32-31.4-12.95
		C12.28,77.4,8.47,65.51,8.47,50.41C8.47,34.07,12.81,21.48,21.47,12.64z"/>
</g>
</svg>
